<svg aria-hidden="true" style="position: absolute; width: 0; height: 0; overflow: hidden;" version="1.1" xmlns="http://www.w3.org/2000/svg" xmlns:xlink="http://www.w3.org/1999/xlink">
<defs>
<symbol id="icon-dots2" viewBox="0 0 81 32">
<path fill="#f8d24e" style="fill: var(--color1, #f8d24e)" d="M33.020 29.616c0 0.982-0.745 1.778-1.664 1.778s-1.664-0.796-1.664-1.778c0-0.982 0.745-1.778 1.664-1.778s1.664 0.796 1.664 1.778z"></path>
<path fill="#f8d24e" style="fill: var(--color1, #f8d24e)" d="M36.626 27.245c0 0.982-0.745 1.778-1.664 1.778s-1.664-0.796-1.664-1.778c0-0.982 0.745-1.778 1.664-1.778s1.664 0.796 1.664 1.778z"></path>
<path fill="#f8d24e" style="fill: var(--color1, #f8d24e)" d="M40.785 24.578c0 0.982-0.745 1.778-1.664 1.778s-1.664-0.796-1.664-1.778c0-0.982 0.745-1.778 1.664-1.778s1.664 0.796 1.664 1.778z"></path>
<path fill="#f8d24e" style="fill: var(--color1, #f8d24e)" d="M44.669 22.206c0 0.982-0.745 1.778-1.664 1.778s-1.664-0.796-1.664-1.778c0-0.982 0.745-1.778 1.664-1.778s1.664 0.796 1.664 1.778z"></path>
<path fill="#f8d24e" style="fill: var(--color1, #f8d24e)" d="M42.449 28.431c0 0.982-0.745 1.778-1.664 1.778s-1.664-0.796-1.664-1.778c0-0.982 0.745-1.778 1.664-1.778s1.664 0.796 1.664 1.778z"></path>
<path fill="#f8d24e" style="fill: var(--color1, #f8d24e)" d="M46.055 26.060c0 0.982-0.745 1.778-1.664 1.778s-1.664-0.796-1.664-1.778c0-0.982 0.745-1.778 1.664-1.778s1.664 0.796 1.664 1.778z"></path>
<path fill="#f8d24e" style="fill: var(--color1, #f8d24e)" d="M50.215 23.392c0 0.982-0.745 1.778-1.664 1.778s-1.664-0.796-1.664-1.778c0-0.982 0.745-1.778 1.664-1.778s1.664 0.796 1.664 1.778z"></path>
<path fill="#f8d24e" style="fill: var(--color1, #f8d24e)" d="M54.099 21.021c0 0.982-0.745 1.778-1.664 1.778s-1.664-0.796-1.664-1.778c0-0.982 0.745-1.778 1.664-1.778s1.664 0.796 1.664 1.778z"></path>
<path fill="#f8d24e" style="fill: var(--color1, #f8d24e)" d="M50.493 27.542c0 0.982-0.745 1.778-1.664 1.778s-1.664-0.796-1.664-1.778c0-0.982 0.745-1.778 1.664-1.778s1.664 0.796 1.664 1.778z"></path>
<path fill="#f8d24e" style="fill: var(--color1, #f8d24e)" d="M54.099 25.171c0 0.982-0.745 1.778-1.664 1.778s-1.664-0.796-1.664-1.778c0-0.982 0.745-1.778 1.664-1.778s1.664 0.796 1.664 1.778z"></path>
<path fill="#f8d24e" style="fill: var(--color1, #f8d24e)" d="M58.26 22.503c0 0.982-0.745 1.778-1.664 1.778s-1.664-0.796-1.664-1.778c0-0.982 0.745-1.778 1.664-1.778s1.664 0.796 1.664 1.778z"></path>
<path fill="#f8d24e" style="fill: var(--color1, #f8d24e)" d="M62.141 20.132c0 0.982-0.745 1.778-1.664 1.778s-1.664-0.796-1.664-1.778c0-0.982 0.745-1.778 1.664-1.778s1.664 0.796 1.664 1.778z"></path>
<path fill="#f8d24e" style="fill: var(--color1, #f8d24e)" d="M58.258 26.356c0 0.982-0.745 1.778-1.664 1.778s-1.664-0.796-1.664-1.778c0-0.982 0.745-1.778 1.664-1.778s1.664 0.796 1.664 1.778z"></path>
<path fill="#f8d24e" style="fill: var(--color1, #f8d24e)" d="M61.863 23.985c0 0.982-0.745 1.778-1.664 1.778s-1.664-0.796-1.664-1.778c0-0.982 0.745-1.778 1.664-1.778s1.664 0.796 1.664 1.778z"></path>
<path fill="#f8d24e" style="fill: var(--color1, #f8d24e)" d="M66.023 21.318c0 0.982-0.745 1.778-1.664 1.778s-1.664-0.796-1.664-1.778c0-0.982 0.745-1.778 1.664-1.778s1.664 0.796 1.664 1.778z"></path>
<path fill="#f8d24e" style="fill: var(--color1, #f8d24e)" d="M69.907 18.947c0 0.982-0.745 1.778-1.664 1.778s-1.664-0.796-1.664-1.778c0-0.982 0.745-1.778 1.664-1.778s1.664 0.796 1.664 1.778z"></path>
<path fill="#f8d24e" style="fill: var(--color1, #f8d24e)" d="M60.756 29.616c0 0.982-0.745 1.778-1.664 1.778s-1.664-0.796-1.664-1.778c0-0.982 0.745-1.778 1.664-1.778s1.664 0.796 1.664 1.778z"></path>
<path fill="#f8d24e" style="fill: var(--color1, #f8d24e)" d="M64.362 27.245c0 0.982-0.745 1.778-1.664 1.778s-1.664-0.796-1.664-1.778c0-0.982 0.745-1.778 1.664-1.778s1.664 0.796 1.664 1.778z"></path>
<path fill="#f8d24e" style="fill: var(--color1, #f8d24e)" d="M69.354 29.913c0 0.982-0.745 1.778-1.664 1.778s-1.664-0.796-1.664-1.778c0-0.982 0.745-1.778 1.664-1.778s1.664 0.796 1.664 1.778z"></path>
<path fill="#f8d24e" style="fill: var(--color1, #f8d24e)" d="M68.522 24.578c0 0.982-0.745 1.778-1.664 1.778s-1.664-0.796-1.664-1.778c0-0.982 0.745-1.778 1.664-1.778s1.664 0.796 1.664 1.778z"></path>
<path fill="#f8d24e" style="fill: var(--color1, #f8d24e)" d="M73.514 27.245c0 0.982-0.745 1.778-1.664 1.778s-1.664-0.796-1.664-1.778c0-0.982 0.745-1.778 1.664-1.778s1.664 0.796 1.664 1.778z"></path>
<path fill="#f8d24e" style="fill: var(--color1, #f8d24e)" d="M77.398 29.913c0 0.982-0.745 1.778-1.664 1.778s-1.664-0.796-1.664-1.778c0-0.982 0.745-1.778 1.664-1.778s1.664 0.796 1.664 1.778z"></path>
<path fill="#f8d24e" style="fill: var(--color1, #f8d24e)" d="M72.405 22.206c0 0.982-0.745 1.778-1.664 1.778s-1.664-0.796-1.664-1.778c0-0.982 0.745-1.778 1.664-1.778s1.664 0.796 1.664 1.778z"></path>
<path fill="#f8d24e" style="fill: var(--color1, #f8d24e)" d="M77.398 24.874c0 0.982-0.745 1.778-1.664 1.778s-1.664-0.796-1.664-1.778c0-0.982 0.745-1.778 1.664-1.778s1.664 0.796 1.664 1.778z"></path>
<path fill="#f8d24e" style="fill: var(--color1, #f8d24e)" d="M81.281 27.542c0 0.982-0.745 1.778-1.664 1.778s-1.664-0.796-1.664-1.778c0-0.982 0.745-1.778 1.664-1.778s1.664 0.796 1.664 1.778z"></path>
<path fill="#f8d24e" style="fill: var(--color1, #f8d24e)" d="M16.102 10.055c0 0.982-0.745 1.778-1.664 1.778s-1.664-0.796-1.664-1.778c0-0.982 0.745-1.778 1.664-1.778s1.664 0.796 1.664 1.778z"></path>
<path fill="#f8d24e" style="fill: var(--color1, #f8d24e)" d="M19.707 7.684c0 0.982-0.745 1.778-1.664 1.778s-1.664-0.796-1.664-1.778c0-0.982 0.745-1.778 1.664-1.778s1.664 0.796 1.664 1.778z"></path>
<path fill="#f8d24e" style="fill: var(--color1, #f8d24e)" d="M23.868 5.016c0 0.982-0.745 1.778-1.664 1.778s-1.664-0.796-1.664-1.778c0-0.982 0.745-1.778 1.664-1.778s1.664 0.796 1.664 1.778z"></path>
<path fill="#f8d24e" style="fill: var(--color1, #f8d24e)" d="M27.75 2.645c0 0.982-0.745 1.778-1.664 1.778s-1.664-0.796-1.664-1.778c0-0.982 0.745-1.778 1.664-1.778s1.664 0.796 1.664 1.778z"></path>
<path fill="#f8d24e" style="fill: var(--color1, #f8d24e)" d="M9.168 9.758c0 0.982-0.745 1.778-1.664 1.778s-1.664-0.796-1.664-1.778c0-0.982 0.745-1.778 1.664-1.778s1.664 0.796 1.664 1.778z"></path>
<path fill="#f8d24e" style="fill: var(--color1, #f8d24e)" d="M12.773 7.387c0 0.982-0.745 1.778-1.664 1.778s-1.664-0.796-1.664-1.778c0-0.982 0.745-1.778 1.664-1.778s1.664 0.796 1.664 1.778z"></path>
<path fill="#f8d24e" style="fill: var(--color1, #f8d24e)" d="M16.933 4.72c0 0.982-0.745 1.778-1.664 1.778s-1.664-0.796-1.664-1.778c0-0.982 0.745-1.778 1.664-1.778s1.664 0.796 1.664 1.778z"></path>
<path fill="#f8d24e" style="fill: var(--color1, #f8d24e)" d="M20.816 2.349c0 0.982-0.745 1.778-1.664 1.778s-1.664-0.796-1.664-1.778c0-0.982 0.745-1.778 1.664-1.778s1.664 0.796 1.664 1.778z"></path>
<path fill="#f8d24e" style="fill: var(--color1, #f8d24e)" d="M24.699 29.616c0 0.982-0.745 1.778-1.664 1.778s-1.664-0.796-1.664-1.778c0-0.982 0.745-1.778 1.664-1.778s1.664 0.796 1.664 1.778z"></path>
<path fill="#f8d24e" style="fill: var(--color1, #f8d24e)" d="M28.304 27.245c0 0.982-0.745 1.778-1.664 1.778s-1.664-0.796-1.664-1.778c0-0.982 0.745-1.778 1.664-1.778s1.664 0.796 1.664 1.778z"></path>
<path fill="#f8d24e" style="fill: var(--color1, #f8d24e)" d="M32.464 24.578c0 0.982-0.745 1.778-1.664 1.778s-1.664-0.796-1.664-1.778c0-0.982 0.745-1.778 1.664-1.778s1.664 0.796 1.664 1.778z"></path>
<path fill="#f8d24e" style="fill: var(--color1, #f8d24e)" d="M36.348 22.206c0 0.982-0.745 1.778-1.664 1.778s-1.664-0.796-1.664-1.778c0-0.982 0.745-1.778 1.664-1.778s1.664 0.796 1.664 1.778z"></path>
<path fill="#f8d24e" style="fill: var(--color1, #f8d24e)" d="M20.261 27.838c0 0.982-0.745 1.778-1.664 1.778s-1.664-0.796-1.664-1.778c0-0.982 0.745-1.778 1.664-1.778s1.664 0.796 1.664 1.778z"></path>
<path fill="#f8d24e" style="fill: var(--color1, #f8d24e)" d="M23.867 25.467c0 0.982-0.745 1.778-1.664 1.778s-1.664-0.796-1.664-1.778c0-0.982 0.745-1.778 1.664-1.778s1.664 0.796 1.664 1.778z"></path>
<path fill="#f8d24e" style="fill: var(--color1, #f8d24e)" d="M28.027 22.8c0 0.982-0.745 1.778-1.664 1.778s-1.664-0.796-1.664-1.778c0-0.982 0.745-1.778 1.664-1.778s1.664 0.796 1.664 1.778z"></path>
<path fill="#f8d24e" style="fill: var(--color1, #f8d24e)" d="M31.91 20.429c0 0.982-0.745 1.778-1.664 1.778s-1.664-0.796-1.664-1.778c0-0.982 0.745-1.778 1.664-1.778s1.664 0.796 1.664 1.778z"></path>
<path fill="#f8d24e" style="fill: var(--color1, #f8d24e)" d="M21.926 21.614c0 0.982-0.745 1.778-1.664 1.778s-1.664-0.796-1.664-1.778c0-0.982 0.745-1.778 1.664-1.778s1.664 0.796 1.664 1.778z"></path>
<path fill="#f8d24e" style="fill: var(--color1, #f8d24e)" d="M25.531 19.243c0 0.982-0.745 1.778-1.664 1.778s-1.664-0.796-1.664-1.778c0-0.982 0.745-1.778 1.664-1.778s1.664 0.796 1.664 1.778z"></path>
<path fill="#f8d24e" style="fill: var(--color1, #f8d24e)" d="M29.692 16.575c0 0.982-0.745 1.778-1.664 1.778s-1.664-0.796-1.664-1.778c0-0.982 0.745-1.778 1.664-1.778s1.664 0.796 1.664 1.778z"></path>
<path fill="#f8d24e" style="fill: var(--color1, #f8d24e)" d="M33.575 14.204c0 0.982-0.745 1.778-1.664 1.778s-1.664-0.796-1.664-1.778c0-0.982 0.745-1.778 1.664-1.778s1.664 0.796 1.664 1.778z"></path>
<path fill="#f8d24e" style="fill: var(--color1, #f8d24e)" d="M21.926 11.24c0 0.982-0.745 1.778-1.664 1.778s-1.664-0.796-1.664-1.778c0-0.982 0.745-1.778 1.664-1.778s1.664 0.796 1.664 1.778z"></path>
<path fill="#f8d24e" style="fill: var(--color1, #f8d24e)" d="M25.531 8.869c0 0.982-0.745 1.778-1.664 1.778s-1.664-0.796-1.664-1.778c0-0.982 0.745-1.778 1.664-1.778s1.664 0.796 1.664 1.778z"></path>
<path fill="#f8d24e" style="fill: var(--color1, #f8d24e)" d="M29.692 6.202c0 0.982-0.745 1.778-1.664 1.778s-1.664-0.796-1.664-1.778c0-0.982 0.745-1.778 1.664-1.778s1.664 0.796 1.664 1.778z"></path>
<path fill="#f8d24e" style="fill: var(--color1, #f8d24e)" d="M33.575 3.831c0 0.982-0.745 1.778-1.664 1.778s-1.664-0.796-1.664-1.778c0-0.982 0.745-1.778 1.664-1.778s1.664 0.796 1.664 1.778z"></path>
<path fill="#f8d24e" style="fill: var(--color1, #f8d24e)" d="M21.093 16.872c0 0.982-0.745 1.778-1.664 1.778s-1.664-0.796-1.664-1.778c0-0.982 0.745-1.778 1.664-1.778s1.664 0.796 1.664 1.778z"></path>
<path fill="#f8d24e" style="fill: var(--color1, #f8d24e)" d="M24.7 14.501c0 0.982-0.745 1.778-1.664 1.778s-1.664-0.796-1.664-1.778c0-0.982 0.745-1.778 1.664-1.778s1.664 0.796 1.664 1.778z"></path>
<path fill="#f8d24e" style="fill: var(--color1, #f8d24e)" d="M28.859 11.833c0 0.982-0.745 1.778-1.664 1.778s-1.664-0.796-1.664-1.778c0-0.982 0.745-1.778 1.664-1.778s1.664 0.796 1.664 1.778z"></path>
<path fill="#f8d24e" style="fill: var(--color1, #f8d24e)" d="M32.742 9.462c0 0.982-0.745 1.778-1.664 1.778s-1.664-0.796-1.664-1.778c0-0.982 0.745-1.778 1.664-1.778s1.664 0.796 1.664 1.778z"></path>
<path fill="#f8d24e" style="fill: var(--color1, #f8d24e)" d="M3.62 8.276c0 0.982-0.745 1.778-1.664 1.778s-1.664-0.796-1.664-1.778c0-0.982 0.745-1.778 1.664-1.778s1.664 0.796 1.664 1.778z"></path>
<path fill="#f8d24e" style="fill: var(--color1, #f8d24e)" d="M7.226 5.905c0 0.982-0.745 1.778-1.664 1.778s-1.664-0.796-1.664-1.778c0-0.982 0.745-1.778 1.664-1.778s1.664 0.796 1.664 1.778z"></path>
<path fill="#f8d24e" style="fill: var(--color1, #f8d24e)" d="M11.386 3.238c0 0.982-0.745 1.778-1.664 1.778s-1.664-0.796-1.664-1.778c0-0.982 0.745-1.778 1.664-1.778s1.664 0.796 1.664 1.778z"></path>
<path fill="#f8d24e" style="fill: var(--color1, #f8d24e)" d="M9.445 10.055c0.919 0 1.664-0.796 1.664-1.778s-0.745-1.778-1.664-1.778c-0.919 0-1.664 0.796-1.664 1.778s0.745 1.778 1.664 1.778z"></path>
</symbol>
<symbol id="icon-dots1" viewBox="0 0 101 32">
<path fill="#f8d24e" style="fill: var(--color1, #f8d24e)" d="M83.002 16.522c0.208 1.449-0.723 2.803-2.078 3.025s-2.623-0.772-2.831-2.221c-0.208-1.449 0.723-2.803 2.078-3.025s2.623 0.772 2.831 2.221z"></path>
<path fill="#f8d24e" style="fill: var(--color1, #f8d24e)" d="M87.819 12.152c0.208 1.449-0.723 2.803-2.078 3.025s-2.623-0.772-2.831-2.221c-0.208-1.449 0.723-2.803 2.078-3.025s2.623 0.772 2.831 2.221z"></path>
<path fill="#f8d24e" style="fill: var(--color1, #f8d24e)" d="M93.392 7.212c0.208 1.449-0.723 2.803-2.078 3.025s-2.623-0.772-2.831-2.221c-0.208-1.449 0.723-2.803 2.078-3.025s2.623 0.772 2.831 2.221z"></path>
<path fill="#f8d24e" style="fill: var(--color1, #f8d24e)" d="M98.618 2.776c0.208 1.449-0.723 2.803-2.078 3.025s-2.623-0.772-2.831-2.221c-0.208-1.449 0.723-2.803 2.078-3.025s2.623 0.772 2.831 2.221z"></path>
<path fill="#f8d24e" style="fill: var(--color1, #f8d24e)" d="M5.12 16.519c0 1.466-1.146 2.654-2.56 2.654s-2.56-1.188-2.56-2.654c0-1.466 1.146-2.654 2.56-2.654s2.56 1.188 2.56 2.654z"></path>
<path fill="#f8d24e" style="fill: var(--color1, #f8d24e)" d="M10.665 12.98c0 1.466-1.146 2.654-2.56 2.654s-2.56-1.188-2.56-2.654c0-1.466 1.146-2.654 2.56-2.654s2.56 1.188 2.56 2.654z"></path>
<path fill="#f8d24e" style="fill: var(--color1, #f8d24e)" d="M17.066 8.999c0 1.466-1.146 2.654-2.56 2.654s-2.56-1.188-2.56-2.654c0-1.466 1.146-2.654 2.56-2.654s2.56 1.188 2.56 2.654z"></path>
<path fill="#f8d24e" style="fill: var(--color1, #f8d24e)" d="M23.038 5.46c0 1.466-1.146 2.654-2.56 2.654s-2.56-1.188-2.56-2.654c0-1.466 1.146-2.654 2.56-2.654s2.56 1.188 2.56 2.654z"></path>
<path fill="#f8d24e" style="fill: var(--color1, #f8d24e)" d="M7.68 23.153c0 1.466-1.146 2.654-2.56 2.654s-2.56-1.188-2.56-2.654c0-1.466 1.146-2.654 2.56-2.654s2.56 1.188 2.56 2.654z"></path>
<path fill="#f8d24e" style="fill: var(--color1, #f8d24e)" d="M13.226 19.615c0 1.466-1.146 2.654-2.56 2.654s-2.56-1.188-2.56-2.654c0-1.466 1.146-2.654 2.56-2.654s2.56 1.188 2.56 2.654z"></path>
<path fill="#f8d24e" style="fill: var(--color1, #f8d24e)" d="M19.627 15.634c0 1.466-1.146 2.654-2.56 2.654s-2.56-1.188-2.56-2.654c0-1.466 1.146-2.654 2.56-2.654s2.56 1.188 2.56 2.654z"></path>
<path fill="#f8d24e" style="fill: var(--color1, #f8d24e)" d="M25.598 12.095c0 1.466-1.146 2.654-2.56 2.654s-2.56-1.188-2.56-2.654c0-1.466 1.146-2.654 2.56-2.654s2.56 1.188 2.56 2.654z"></path>
<path fill="#f8d24e" style="fill: var(--color1, #f8d24e)" d="M14.078 26.692c0 1.466-1.146 2.654-2.56 2.654s-2.56-1.188-2.56-2.654c0-1.466 1.146-2.654 2.56-2.654s2.56 1.188 2.56 2.654z"></path>
<path fill="#f8d24e" style="fill: var(--color1, #f8d24e)" d="M19.625 23.153c0 1.466-1.146 2.654-2.56 2.654s-2.56-1.188-2.56-2.654c0-1.466 1.146-2.654 2.56-2.654s2.56 1.188 2.56 2.654z"></path>
<path fill="#f8d24e" style="fill: var(--color1, #f8d24e)" d="M26.024 19.172c0 1.466-1.146 2.654-2.56 2.654s-2.56-1.188-2.56-2.654c0-1.466 1.146-2.654 2.56-2.654s2.56 1.188 2.56 2.654z"></path>
<path fill="#f8d24e" style="fill: var(--color1, #f8d24e)" d="M31.996 15.634c0 1.466-1.146 2.654-2.56 2.654s-2.56-1.188-2.56-2.654c0-1.466 1.146-2.654 2.56-2.654s2.56 1.188 2.56 2.654z"></path>
<path fill="#f8d24e" style="fill: var(--color1, #f8d24e)" d="M21.33 28.904c0 1.466-1.146 2.654-2.56 2.654s-2.56-1.188-2.56-2.654c0-1.466 1.146-2.654 2.56-2.654s2.56 1.188 2.56 2.654z"></path>
<path fill="#f8d24e" style="fill: var(--color1, #f8d24e)" d="M26.876 25.365c0 1.466-1.146 2.654-2.56 2.654s-2.56-1.188-2.56-2.654c0-1.466 1.146-2.654 2.56-2.654s2.56 1.188 2.56 2.654z"></path>
<path fill="#f8d24e" style="fill: var(--color1, #f8d24e)" d="M33.278 21.384c0 1.466-1.146 2.654-2.56 2.654s-2.56-1.188-2.56-2.654c0-1.466 1.146-2.654 2.56-2.654s2.56 1.188 2.56 2.654z"></path>
<path fill="#f8d24e" style="fill: var(--color1, #f8d24e)" d="M39.248 17.846c0 1.466-1.146 2.654-2.56 2.654s-2.56-1.188-2.56-2.654c0-1.466 1.146-2.654 2.56-2.654s2.56 1.188 2.56 2.654z"></path>
<path fill="#f8d24e" style="fill: var(--color1, #f8d24e)" d="M30.717 29.346c0 1.466-1.146 2.654-2.56 2.654s-2.56-1.188-2.56-2.654c0-1.466 1.146-2.654 2.56-2.654s2.56 1.188 2.56 2.654z"></path>
<path fill="#f8d24e" style="fill: var(--color1, #f8d24e)" d="M36.263 25.808c0 1.466-1.146 2.654-2.56 2.654s-2.56-1.188-2.56-2.654c0-1.466 1.146-2.654 2.56-2.654s2.56 1.188 2.56 2.654z"></path>
<path fill="#f8d24e" style="fill: var(--color1, #f8d24e)" d="M42.664 21.827c0 1.466-1.146 2.654-2.56 2.654s-2.56-1.188-2.56-2.654c0-1.466 1.146-2.654 2.56-2.654s2.56 1.188 2.56 2.654z"></path>
<path fill="#f8d24e" style="fill: var(--color1, #f8d24e)" d="M48.635 18.288c0 1.466-1.146 2.654-2.56 2.654s-2.56-1.188-2.56-2.654c0-1.466 1.146-2.654 2.56-2.654s2.56 1.188 2.56 2.654z"></path>
<path fill="#f8d24e" style="fill: var(--color1, #f8d24e)" d="M41.811 29.346c0 1.466-1.146 2.654-2.56 2.654s-2.56-1.188-2.56-2.654c0-1.466 1.146-2.654 2.56-2.654s2.56 1.188 2.56 2.654z"></path>
<path fill="#f8d24e" style="fill: var(--color1, #f8d24e)" d="M47.356 25.808c0 1.466-1.146 2.654-2.56 2.654s-2.56-1.188-2.56-2.654c0-1.466 1.146-2.654 2.56-2.654s2.56 1.188 2.56 2.654z"></path>
<path fill="#f8d24e" style="fill: var(--color1, #f8d24e)" d="M53.756 21.826c0 1.466-1.146 2.654-2.56 2.654s-2.56-1.188-2.56-2.654c0-1.466 1.146-2.654 2.56-2.654s2.56 1.188 2.56 2.654z"></path>
<path fill="#f8d24e" style="fill: var(--color1, #f8d24e)" d="M59.729 18.288c0 1.466-1.146 2.654-2.56 2.654s-2.56-1.188-2.56-2.654c0-1.466 1.146-2.654 2.56-2.654s2.56 1.188 2.56 2.654z"></path>
<path fill="#f8d24e" style="fill: var(--color1, #f8d24e)" d="M51.194 28.904c0 1.466-1.146 2.654-2.56 2.654s-2.56-1.188-2.56-2.654c0-1.466 1.146-2.654 2.56-2.654s2.56 1.188 2.56 2.654z"></path>
<path fill="#f8d24e" style="fill: var(--color1, #f8d24e)" d="M56.74 25.365c0 1.466-1.146 2.654-2.56 2.654s-2.56-1.188-2.56-2.654c0-1.466 1.146-2.654 2.56-2.654s2.56 1.188 2.56 2.654z"></path>
<path fill="#f8d24e" style="fill: var(--color1, #f8d24e)" d="M63.141 21.384c0 1.466-1.146 2.654-2.56 2.654s-2.56-1.188-2.56-2.654c0-1.466 1.146-2.654 2.56-2.654s2.56 1.188 2.56 2.654z"></path>
<path fill="#f8d24e" style="fill: var(--color1, #f8d24e)" d="M69.112 17.846c0 1.466-1.146 2.654-2.56 2.654s-2.56-1.188-2.56-2.654c0-1.466 1.146-2.654 2.56-2.654s2.56 1.188 2.56 2.654z"></path>
<path fill="#f8d24e" style="fill: var(--color1, #f8d24e)" d="M61.859 28.461c0 1.466-1.146 2.654-2.56 2.654s-2.56-1.188-2.56-2.654c0-1.466 1.146-2.654 2.56-2.654s2.56 1.188 2.56 2.654z"></path>
<path fill="#f8d24e" style="fill: var(--color1, #f8d24e)" d="M67.405 24.923c0 1.466-1.146 2.654-2.56 2.654s-2.56-1.188-2.56-2.654c0-1.466 1.146-2.654 2.56-2.654s2.56 1.188 2.56 2.654z"></path>
<path fill="#f8d24e" style="fill: var(--color1, #f8d24e)" d="M73.806 20.942c0 1.466-1.146 2.654-2.56 2.654s-2.56-1.188-2.56-2.654c0-1.466 1.146-2.654 2.56-2.654s2.56 1.188 2.56 2.654z"></path>
<path fill="#f8d24e" style="fill: var(--color1, #f8d24e)" d="M79.778 17.403c0 1.466-1.146 2.654-2.56 2.654s-2.56-1.188-2.56-2.654c0-1.466 1.146-2.654 2.56-2.654s2.56 1.188 2.56 2.654z"></path>
<path fill="#f8d24e" style="fill: var(--color1, #f8d24e)" d="M71.672 16.961c0 1.466-1.146 2.654-2.56 2.654s-2.56-1.188-2.56-2.654c0-1.466 1.146-2.654 2.56-2.654s2.56 1.188 2.56 2.654z"></path>
<path fill="#f8d24e" style="fill: var(--color1, #f8d24e)" d="M77.218 13.422c0 1.466-1.146 2.654-2.56 2.654s-2.56-1.188-2.56-2.654c0-1.466 1.146-2.654 2.56-2.654s2.56 1.188 2.56 2.654z"></path>
<path fill="#f8d24e" style="fill: var(--color1, #f8d24e)" d="M83.618 9.442c0 1.466-1.146 2.654-2.56 2.654s-2.56-1.188-2.56-2.654c0-1.466 1.146-2.654 2.56-2.654s2.56 1.188 2.56 2.654z"></path>
<path fill="#f8d24e" style="fill: var(--color1, #f8d24e)" d="M89.59 5.903c0 1.466-1.146 2.654-2.56 2.654s-2.56-1.188-2.56-2.654c0-1.466 1.146-2.654 2.56-2.654s2.56 1.188 2.56 2.654z"></path>
</symbol>
<symbol id="arrow" viewBox="0 0 82 32">
<path d="M81.414 17.414c0.781-0.781 0.781-2.047 0-2.828l-12.728-12.728c-0.781-0.781-2.047-0.781-2.828 0s-0.781 2.047 0 2.828l11.314 11.314-11.314 11.314c-0.781 0.781-0.781 2.047 0 2.828s2.047 0.781 2.828 0l12.728-12.728zM0 18h80v-4h-80v4z"></path>
</symbol>
</defs>
</svg>
